arm26_states
version=1
nRows=17
nColumns=17
inDegrees=yes

# SIMM Motion File Header:
name arm26_states
datacolumns 17
datarows 17
otherdata 1
range 0.00000000 0.00133748
endheader
time	/jointset/r_shoulder/r_shoulder_elev/value	/jointset/r_shoulder/r_shoulder_elev/speed	/jointset/r_elbow/r_elbow_flex/value	/jointset/r_elbow/r_elbow_flex/speed	/forceset/TRIlong/activation	/forceset/TRIlong/fiber_length	/forceset/TRIlat/activation	/forceset/TRIlat/fiber_length	/forceset/TRImed/activation	/forceset/TRImed/fiber_length	/forceset/BIClong/activation	/forceset/BIClong/fiber_length	/forceset/BICshort/activation	/forceset/BICshort/fiber_length	/forceset/BRA/activation	/forceset/BRA/fiber_length
      0.00000000	      0.00000000	      0.00000000	     40.00000000	      0.00000000	      0.05000000	      0.10000000	      0.05000000	      0.10000000	      0.05000000	      0.10000000	      0.05000000	      0.10000000	      0.05000000	      0.10000000	      0.05000000	      0.10000000
      0.00001284	     -0.00000734	     -1.11499514	     40.00000786	      1.28973668	      0.04999077	      0.11602203	      0.04999077	      0.09999580	      0.04999077	      0.09999580	      0.04999077	      0.10474673	      0.04999077	      0.10738455	      0.04999077	      0.09998594
      0.00002569	     -0.00002795	     -2.06852626	     40.00003403	      2.80277788	      0.04998154	      0.12645752	      0.04998154	      0.09999160	      0.04998154	      0.09999160	      0.04998154	      0.10876761	      0.04998154	      0.11287908	      0.04998154	      0.09997190
      0.00004652	     -0.00008467	     -3.32367454	     40.00011851	      5.29323249	      0.04996658	      0.13705621	      0.04996658	      0.09998478	      0.04996658	      0.09998478	      0.04996658	      0.11408726	      0.04996658	      0.11916237	      0.04996658	      0.09994916
      0.00007241	     -0.00018662	     -4.48788913	     40.00029262	      8.07834794	      0.04994799	      0.14417235	      0.04994799	      0.09997631	      0.04994799	      0.09997631	      0.04994799	      0.11912660	      0.04994799	      0.12409810	      0.04994799	      0.09992096
      0.00009830	     -0.00031426	     -5.32582553	     40.00053238	     10.35380619	      0.04992940	      0.14775453	      0.04992940	      0.09996784	      0.04992940	      0.09996784	      0.04992940	      0.12286872	      0.04992940	      0.12710419	      0.04992940	      0.09989284
      0.00012419	     -0.00046039	     -5.92826670	     40.00082438	     12.12199839	      0.04991083	      0.14954340	      0.04991083	      0.09995937	      0.04991083	      0.09995937	      0.04991083	      0.12564898	      0.04991083	      0.12894835	      0.04991083	      0.09986477
      0.00016098	     -0.00068995	     -6.50650677	     40.00130556	     13.91090909	      0.04988444	      0.15065274	      0.04988444	      0.09994734	      0.04988444	      0.09994734	      0.04988444	      0.12840791	      0.04988444	      0.13041813	      0.04988444	      0.09982502
      0.00019777	     -0.00093658	     -6.87280175	     40.00184031	     15.07245966	      0.04985808	      0.15108258	      0.04985808	      0.09993531	      0.04985808	      0.09993531	      0.04985808	      0.13019967	      0.04985808	      0.13115745	      0.04985808	      0.09978540
      0.00023456	     -0.00119413	     -7.11247901	     40.00240961	     15.82257710	      0.04983173	      0.15129955	      0.04983173	      0.09992327	      0.04983173	      0.09992327	      0.04983173	      0.13135627	      0.04983173	      0.13155991	      0.04983173	      0.09974593
      0.00030249	     -0.00168735	     -7.38196647	     40.00351476	     16.62355012	      0.04978312	      0.15149732	      0.04978312	      0.09990106	      0.04978312	      0.09990106	      0.04978312	      0.13251700	      0.04978312	      0.13197157	      0.04978312	      0.09967339
      0.00037042	     -0.00219477	     -7.54717004	     40.00466033	     17.06961892	      0.04973456	      0.15158654	      0.04973456	      0.09987885	      0.04973456	      0.09987885	      0.04973456	      0.13307544	      0.04973456	      0.13219656	      0.04973456	      0.09960131
      0.00043835	     -0.00271179	     -7.67011158	     40.00583072	     17.37288867	      0.04968605	      0.15163024	      0.04968605	      0.09985664	      0.04968605	      0.09985664	      0.04968605	      0.13339840	      0.04968605	      0.13233257	      0.04968605	      0.09952969
      0.00055446	     -0.00361226	     -7.83504098	     40.00787027	     17.73824013	      0.04960327	      0.15166240	      0.04960327	      0.09981869	      0.04960327	      0.09981869	      0.04960327	      0.13370482	      0.04960327	      0.13246192	      0.04960327	      0.09940831
      0.00074681	     -0.00514114	     -8.05473567	     40.01132527	     18.16245617	      0.04946647	      0.15168887	      0.04946647	      0.09975583	      0.04946647	      0.09975583	      0.04946647	      0.13392435	      0.04946647	      0.13255073	      0.04946647	      0.09921001
      0.00093916	     -0.00670941	     -8.24903656	     40.01485237	     18.50311645	      0.04933010	      0.15170699	      0.04933010	      0.09969300	      0.04933010	      0.09969300	      0.04933010	      0.13400733	      0.04933010	      0.13258729	      0.04933010	      0.09901510
      0.00133748	     -0.01007058	     -8.62301463	     40.02234869	     19.12285283	      0.04904904	      0.15173441	      0.04904904	      0.09956296	      0.04904904	      0.09956296	      0.04904904	      0.13406959	      0.04904904	      0.13263301	      0.04904904	      0.09862180
